<svg width="2400" height="800" viewBox="0 0 2400 800" xmlns="http://www.w3.org/2000/svg" xmlns:xlink="http://www.w3.org/1999/xlink">
    <path fill="#0d1117" fill-rule="evenodd" stroke="none" d="M 200 0 C 89.543999 0 0 89.544006 0 200 L 0 600 C 0 710.455994 89.543999 800 200 800 L 2200 800 C 2310.456055 800 2400 710.455994 2400 600 L 2400 200 C 2400 89.544006 2310.456055 0 2200 0 Z"/>
    <path fill="#d2a8ff" fill-rule="evenodd" stroke="none" d="M 2145.755615 644.948914 C 2156.413818 645.1427 2165.134033 642.381287 2171.916504 636.664612 C 2178.698975 630.947937 2184.028076 623.535767 2187.903564 614.427856 C 2191.779297 605.319946 2194.492432 595.0979 2196.042725 583.761414 C 2197.593018 572.424988 2198.368164 561.234009 2198.368164 550.188232 L 2198.368164 502.807922 C 2198.368164 480.13501 2203.697021 459.933167 2214.355225 442.201782 C 2225.013428 424.470398 2241.678711 410.857178 2264.351807 401.361694 C 2241.678711 391.86618 2225.013428 378.204529 2214.355225 360.376251 C 2203.697021 342.547974 2198.368164 322.200806 2198.368164 299.334106 L 2198.368164 251.953796 C 2198.368164 240.90802 2198.029053 229.717041 2197.350586 218.380615 C 2196.672363 207.044128 2194.686279 196.822083 2191.391846 187.714172 C 2188.097412 178.606262 2182.865234 171.194092 2175.695313 165.477417 C 2168.525146 159.760742 2158.54541 156.999329 2145.755615 157.193115 L 2153.60376 116.789001 C 2167.168701 116.789001 2179.328613 118.726868 2190.08374 122.602539 C 2200.838867 126.478271 2210.334229 131.710388 2218.570068 138.299133 C 2226.805908 144.887817 2233.782227 152.590698 2239.498779 161.407898 C 2245.215576 170.225159 2249.914795 179.672058 2253.59668 189.748901 C 2257.278564 199.825745 2259.943115 210.193115 2261.590332 220.851318 C 2263.237549 231.509521 2264.061035 241.876892 2264.061035 251.953796 L 2264.061035 299.334106 C 2264.061035 326.464081 2270.358887 345.987671 2282.955078 357.905487 C 2295.551025 369.823303 2314.929443 375.782135 2341.090332 375.782135 L 2341.090332 426.941254 C 2314.929443 426.941254 2295.551025 432.851624 2282.955078 444.672546 C 2270.358887 456.493469 2264.061035 475.871735 2264.061035 502.807922 L 2264.061035 550.188232 C 2264.061035 560.265137 2263.140625 570.632446 2261.299561 581.290649 C 2259.45874 591.948853 2256.552002 602.316284 2252.579346 612.393066 C 2248.606689 622.469971 2243.665283 631.965332 2237.754883 640.879456 C 2231.844238 649.793579 2224.77124 657.544861 2216.5354 664.133606 C 2208.299561 670.72229 2198.949463 675.954407 2188.485107 679.830139 C 2178.020508 683.705872 2166.393555 685.643677 2153.60376 685.643677 Z M 2014.881226 495.831665 C 2014.881226 490.599457 2013.81543 485.803345 2011.683716 481.443176 C 2009.552124 477.083008 2005.724854 473.110443 2000.202026 469.525421 C 1994.679077 465.940369 1987.121582 462.597626 1977.529175 459.49707 C 1967.936768 456.396484 1955.680054 453.392853 1940.758545 450.486084 C 1922.155151 446.610382 1905.344482 441.959595 1890.326172 436.5336 C 1875.307739 431.107605 1862.421265 424.615875 1851.666138 417.058228 C 1840.911011 409.50061 1832.626831 400.731934 1826.813232 390.751984 C 1820.999634 380.772034 1818.092896 369.193512 1818.092896 356.016083 C 1818.092896 343.226257 1821.096558 331.066376 1827.103882 319.536133 C 1833.111206 308.00589 1841.686157 297.880768 1852.828857 289.1604 C 1863.971436 280.440063 1877.536255 273.512329 1893.52356 268.377014 C 1909.510864 263.241699 1927.387329 260.674072 1947.153442 260.674072 C 1968.082275 260.674072 1986.830811 263.290161 2003.399414 268.522339 C 2019.96814 273.754578 2033.968872 280.876099 2045.402222 289.887115 C 2056.835693 298.898132 2065.604248 309.507721 2071.708496 321.716217 C 2077.812744 333.924713 2080.864746 347.005035 2080.864746 360.957611 L 2011.393066 360.957611 C 2011.393066 354.75647 2010.036621 348.797638 2007.323608 343.080963 C 2004.610596 337.364288 2000.541138 332.277496 1995.115112 327.820435 C 1989.689209 323.363373 1982.9552 319.826843 1974.913086 317.210724 C 1966.870972 314.594635 1957.61792 313.286591 1947.153442 313.286591 C 1936.689087 313.286591 1927.629761 314.400848 1919.97522 316.629364 C 1912.320679 318.85791 1905.974243 321.764648 1900.935791 325.34967 C 1895.897461 328.934723 1892.167114 333.149475 1889.744751 337.994141 C 1887.32251 342.838776 1886.111328 347.877106 1886.111328 353.109314 C 1886.111328 358.341522 1887.031738 363.089203 1888.872803 367.352478 C 1890.713745 371.615784 1894.15332 375.491425 1899.191772 378.979553 C 1904.230225 382.467712 1911.206421 385.616669 1920.120483 388.426575 C 1929.034668 391.23645 1940.564697 393.90097 1954.71106 396.420166 C 1974.477173 399.908325 1992.256714 404.268433 2008.050293 409.500641 C 2023.84375 414.732849 2037.311646 421.127686 2048.454346 428.685303 C 2059.596924 436.24295 2068.171875 445.205383 2074.179199 455.572937 C 2080.186523 465.94046 2083.190186 478.100311 2083.190186 492.052887 C 2083.190186 506.005432 2079.99292 518.795044 2073.5979 530.422241 C 2067.202881 542.049316 2058.095215 552.077637 2046.274292 560.507263 C 2034.453369 568.936951 2020.258789 575.477112 2003.690063 580.127991 C 1987.12146 584.778809 1968.566772 587.104248 1948.025513 587.104248 C 1925.158813 587.104248 1905.005371 584.052124 1887.564697 577.947876 C 1870.124023 571.843628 1855.493408 563.850098 1843.672485 553.967041 C 1831.851563 544.083984 1822.88916 532.844604 1816.784912 520.248535 C 1810.680664 507.652466 1807.62854 494.862823 1807.62854 481.879181 L 1875.065552 481.879181 C 1875.646973 491.568451 1878.166138 499.80423 1882.623169 506.586731 C 1887.080322 513.369202 1892.796875 518.843567 1899.773071 523.009949 C 1906.74939 527.176392 1914.500732 530.179993 1923.027222 532.020935 C 1931.553833 533.861938 1940.177124 534.782349 1948.897583 534.782349 C 1970.407715 534.782349 1986.782349 531.148926 1998.021973 523.881958 C 2009.261475 516.61499 2014.881226 507.265015 2014.881226 495.831665 Z M 1646.837769 586.813538 C 1623.583496 586.813538 1602.364258 582.937866 1583.179443 575.186462 C 1563.994751 567.435059 1547.571655 556.776978 1533.90979 543.212036 C 1520.247925 529.646973 1509.638306 513.611511 1502.080688 495.10498 C 1494.523071 476.59845 1490.744263 456.590393 1490.744263 435.0802 L 1490.744263 423.162445 C 1490.744263 398.164124 1494.765259 375.685333 1502.807373 355.725403 C 1510.849487 335.765503 1521.60437 318.712616 1535.07251 304.566284 C 1548.540527 290.419952 1564.236938 279.568115 1582.162109 272.010498 C 1600.08728 264.45282 1618.932617 260.674072 1638.69873 260.674072 C 1661.56543 260.674072 1681.718872 264.501282 1699.159546 272.155823 C 1716.60022 279.810364 1731.182373 290.565277 1742.906494 304.420959 C 1754.630493 318.276611 1763.495972 334.699707 1769.503418 353.690674 C 1775.510742 372.681671 1778.514404 393.513306 1778.514404 416.186218 L 1778.514404 445.544586 L 1560.506714 445.544586 C 1561.669434 457.753052 1564.673096 469.089355 1569.5177 479.553772 C 1574.362305 490.018188 1580.70874 499.077515 1588.557007 506.732056 C 1596.405396 514.386597 1605.609985 520.39386 1616.171265 524.754028 C 1626.732666 529.114197 1638.311157 531.29425 1650.907227 531.29425 C 1668.541748 531.29425 1684.770996 527.806152 1699.595581 520.829895 C 1714.420166 513.853638 1726.483154 504.261353 1735.784912 492.052887 L 1773.572876 527.515442 C 1768.534424 535.07312 1762.042725 542.388428 1754.097534 549.461548 C 1746.152344 556.534729 1736.850708 562.832642 1726.192505 568.355591 C 1715.534302 573.878418 1703.568237 578.335449 1690.293945 581.726685 C 1677.019653 585.11792 1662.534424 586.813538 1646.837769 586.813538 Z M 1638.408081 316.774719 C 1628.718872 316.774719 1619.707886 318.518768 1611.375122 322.006897 C 1603.042358 325.495026 1595.581787 330.581818 1588.993042 337.267426 C 1582.404297 343.953033 1576.83313 352.091919 1572.279175 361.684296 C 1567.725098 371.276672 1564.479248 382.176941 1562.541382 394.385437 L 1709.914673 394.385437 L 1709.914673 389.153259 C 1709.333252 379.851563 1707.540771 370.889099 1704.537109 362.265656 C 1701.533447 353.642181 1697.124878 345.939331 1691.311279 339.15683 C 1685.497681 332.374329 1678.182495 326.948425 1669.365234 322.878937 C 1660.547974 318.809418 1650.229004 316.774719 1638.408081 316.774719 Z M 1353.765625 190.330261 L 1353.765625 266.48761 L 1472.652466 266.48761 L 1472.652466 318.228088 L 1353.765625 318.228088 L 1353.765625 469.089386 C 1353.765625 480.910309 1355.170654 490.69635 1357.980469 498.447754 C 1360.790405 506.199188 1364.714478 512.400269 1369.75293 517.051086 C 1374.791382 521.701904 1380.70166 524.947754 1387.484253 526.788757 C 1394.266724 528.629761 1401.727295 529.550171 1409.866333 529.550171 C 1415.873657 529.550171 1422.123169 529.21106 1428.61499 528.532837 C 1435.106812 527.854614 1441.404785 527.079468 1447.508911 526.207397 C 1453.613159 525.335327 1459.23291 524.366455 1464.368286 523.300659 C 1469.50354 522.234863 1473.815186 521.217468 1477.303345 520.248535 L 1485.151611 568.210205 C 1480.113159 571.117004 1474.057495 573.781494 1466.984375 576.203857 C 1459.911133 578.62616 1452.208252 580.612427 1443.875488 582.16272 C 1435.542725 583.713013 1426.870972 584.924133 1417.859985 585.796143 C 1408.848877 586.668213 1399.983398 587.104248 1391.262939 587.104248 C 1375.566406 587.104248 1361.177979 584.924194 1348.097534 580.563965 C 1335.016968 576.203796 1323.777588 569.421387 1314.378906 560.216614 C 1304.980347 551.01178 1297.616577 539.19104 1292.287476 524.754028 C 1286.958374 510.316986 1284.293945 493.021912 1284.293945 472.868195 L 1284.293945 318.228088 L 1207.555176 318.228088 L 1207.555176 266.48761 L 1284.293945 266.48761 L 1284.293945 190.330261 Z M 1121.747437 495.831665 C 1121.747437 490.599457 1120.681641 485.803345 1118.549927 481.443176 C 1116.418335 477.083008 1112.591064 473.110443 1107.068237 469.525421 C 1101.545288 465.940369 1093.987793 462.597626 1084.395386 459.49707 C 1074.802979 456.396484 1062.546265 453.392853 1047.624756 450.486084 C 1029.021362 446.610382 1012.210693 441.959595 997.192322 436.5336 C 982.17395 431.107605 969.287415 424.615875 958.532288 417.058228 C 947.777222 409.50061 939.492981 400.731934 933.679443 390.751984 C 927.865906 380.772034 924.959167 369.193512 924.959167 356.016083 C 924.959167 343.226257 927.962769 331.066376 933.970093 319.536133 C 939.977478 308.00589 948.552368 297.880768 959.695007 289.1604 C 970.837708 280.440063 984.402466 273.512329 1000.389771 268.377014 C 1016.377075 263.241699 1034.25354 260.674072 1054.019653 260.674072 C 1074.948486 260.674072 1093.697021 263.290161 1110.265625 268.522339 C 1126.834351 273.754578 1140.835083 280.876099 1152.268433 289.887115 C 1163.701782 298.898132 1172.470459 309.507721 1178.574707 321.716217 C 1184.678955 333.924713 1187.731079 347.005035 1187.731079 360.957611 L 1118.259277 360.957611 C 1118.259277 354.75647 1116.902832 348.797638 1114.189819 343.080963 C 1111.476807 337.364288 1107.407349 332.277496 1101.981323 327.820435 C 1096.55542 323.363373 1089.821411 319.826843 1081.779297 317.210724 C 1073.737183 314.594635 1064.484131 313.286591 1054.019653 313.286591 C 1043.555298 313.286591 1034.495972 314.400848 1026.841431 316.629364 C 1019.186829 318.85791 1012.840454 321.764648 1007.802063 325.34967 C 1002.763611 328.934723 999.033325 333.149475 996.610962 337.994141 C 994.18866 342.838776 992.977539 347.877106 992.977539 353.109314 C 992.977539 358.341522 993.89801 363.089203 995.738953 367.352478 C 997.579895 371.615784 1001.019592 375.491425 1006.057983 378.979553 C 1011.096436 382.467712 1018.072571 385.616669 1026.986694 388.426575 C 1035.900879 391.23645 1047.430908 393.90097 1061.577271 396.420166 C 1081.343384 399.908325 1099.122925 404.268433 1114.916504 409.500641 C 1130.709961 414.732849 1144.177856 421.127686 1155.320557 428.685303 C 1166.463257 436.24295 1175.038086 445.205383 1181.045532 455.572937 C 1187.052856 465.94046 1190.056396 478.100311 1190.056396 492.052887 C 1190.056396 506.005432 1186.859009 518.795044 1180.464111 530.422241 C 1174.069214 542.049316 1164.961426 552.077637 1153.140503 560.507263 C 1141.31958 568.936951 1127.125 575.477112 1110.556274 580.127991 C 1093.987671 584.778809 1075.432983 587.104248 1054.891724 587.104248 C 1032.025024 587.104248 1011.871643 584.052124 994.430908 577.947876 C 976.990234 571.843628 962.359619 563.850098 950.538696 553.967041 C 938.717773 544.083984 929.75531 532.844604 923.651062 520.248535 C 917.546875 507.652466 914.494751 494.862823 914.494751 481.879181 L 981.931824 481.879181 C 982.513184 491.568451 985.032349 499.80423 989.48938 506.586731 C 993.946472 513.369202 999.663086 518.843567 1006.639343 523.009949 C 1013.615601 527.176392 1021.366943 530.179993 1029.893433 532.020935 C 1038.420044 533.861938 1047.043335 534.782349 1055.763794 534.782349 C 1077.273926 534.782349 1093.64856 531.148926 1104.888184 523.881958 C 1116.127686 516.61499 1121.747437 507.265015 1121.747437 495.831665 Z M 831.582092 581 C 829.644226 577.124268 828.045532 572.570435 826.78595 567.338196 C 825.526306 562.105957 824.412048 556.486267 823.443115 550.478943 C 818.598511 555.517334 813.124146 560.216553 807.019897 564.576782 C 800.915649 568.936951 794.13324 572.76416 786.672546 576.058472 C 779.211792 579.352844 771.1698 581.968933 762.546326 583.906738 C 753.922852 585.844604 744.669739 586.813538 734.786682 586.813538 C 718.121155 586.813538 703.054504 584.439697 689.586426 579.691956 C 676.118347 574.944214 664.588257 568.355591 654.995911 559.925903 C 645.403503 551.496277 637.991333 541.56488 632.759094 530.131531 C 627.526917 518.698242 624.910828 506.296112 624.910828 492.924896 C 624.910828 459.206207 637.458252 433.433136 662.553467 415.604858 C 687.648743 397.776581 723.64386 388.862579 770.539978 388.862579 L 821.408386 388.862579 L 821.408386 368.224518 C 821.408386 351.55896 815.788696 338.333313 804.549133 328.547119 C 793.30957 318.760956 777.419434 313.86795 756.878113 313.86795 C 747.576416 313.86795 739.437561 314.982208 732.461304 317.210724 C 725.484985 319.43927 719.671509 322.491333 715.020691 326.367065 C 710.369812 330.242767 706.881714 334.796661 704.556274 340.02887 C 702.230896 345.261078 701.068176 350.880768 701.068176 356.888123 L 631.596375 356.888123 C 631.596375 344.679626 634.454712 332.810455 640.171387 321.280212 C 645.888062 309.749969 654.269165 299.479492 665.314941 290.468445 C 676.360718 281.457397 689.877014 274.239014 705.864319 268.813049 C 721.851624 263.387024 740.115662 260.674072 760.656921 260.674072 C 779.260376 260.674072 796.507019 262.95105 812.3974 267.505005 C 828.287842 272.05896 842.046387 278.841309 853.673523 287.852356 C 865.300659 296.863403 874.408447 308.102783 880.997192 321.570892 C 887.585876 335.038971 890.880188 350.783813 890.880188 368.805878 L 890.880188 508.91214 C 890.880188 522.670898 891.897522 535.218323 893.932312 546.55481 C 895.967041 557.891235 898.922241 567.725708 902.797913 576.058472 L 902.797913 581 Z M 747.867126 530.712891 C 756.781311 530.712891 765.162415 529.598633 773.010681 527.370117 C 780.859009 525.141602 787.932068 522.234863 794.230103 518.64978 C 800.528137 515.064819 805.954041 510.946899 810.507996 506.296051 C 815.062012 501.645203 818.695435 496.897522 821.408386 492.052887 L 821.408386 433.045471 L 777.225525 433.045471 C 748.9328 433.045471 728.052734 437.599365 714.584656 446.707275 C 701.116577 455.815216 694.382629 468.798645 694.382629 485.65799 C 694.382629 492.052917 695.448425 498.011719 697.580078 503.534607 C 699.71167 509.057495 702.957581 513.805176 707.317749 517.777771 C 711.677917 521.750366 717.200684 524.899353 723.886292 527.224731 C 730.571899 529.550171 738.56543 530.712891 747.867126 530.712891 Z M 602.621704 426.941254 C 602.621704 449.807953 599.908752 471.027161 594.482788 490.599487 C 589.056763 510.171844 581.111694 527.079346 570.647278 541.322632 C 560.182861 555.565857 547.344727 566.708374 532.132568 574.750427 C 516.92041 582.792542 499.431549 586.813538 479.665405 586.813538 C 461.837128 586.813538 446.092285 583.906799 432.43042 578.093262 C 418.768524 572.279663 406.996246 563.947021 397.113159 553.095032 L 397.113159 701.92157 L 327.641388 701.92157 L 327.641388 266.48761 L 391.590302 266.48761 L 394.49707 298.171387 C 404.573944 286.156677 416.540009 276.903564 430.395691 270.411743 C 444.251343 263.919922 460.383759 260.674072 478.793365 260.674072 C 498.753296 260.674072 516.435974 264.549744 531.841919 272.301147 C 547.247864 280.052551 560.182861 290.95285 570.647278 305.002289 C 581.111694 319.051758 589.056763 335.910858 594.482788 355.580078 C 599.908752 375.249298 602.621704 397.001404 602.621704 420.837036 Z M 533.149963 420.837036 C 533.149963 406.690704 531.696594 393.368134 528.789795 380.868958 C 525.882996 368.369812 521.426025 357.421082 515.41864 348.022491 C 509.411316 338.623871 501.756897 331.2117 492.4552 325.785706 C 483.153473 320.359711 472.10788 317.646759 459.318024 317.646759 C 443.815186 317.646759 431.025513 320.94104 420.948669 327.529755 C 410.871826 334.118469 402.926727 342.935577 397.113159 353.981354 L 397.113159 494.668976 C 402.926727 505.520966 410.823395 514.338074 420.803345 521.120605 C 430.783295 527.903076 443.815186 531.29425 459.899384 531.29425 C 472.68924 531.29425 483.734833 528.484375 493.03653 522.864624 C 502.338257 517.244873 509.944214 509.687317 515.854675 500.191833 C 521.765137 490.69632 526.125244 479.650726 528.93512 467.054657 C 531.745056 454.458588 533.149963 441.087585 533.149963 426.941254 Z M 251.728226 685.643677 C 238.93837 685.643677 227.311417 683.705872 216.847 679.830139 C 206.382584 675.954407 197.032562 670.72229 188.796677 664.133606 C 180.560791 657.544861 173.487732 649.793579 167.577271 640.879456 C 161.666809 631.965332 156.725342 622.469971 152.752747 612.393066 C 148.780136 602.316284 145.873398 591.997314 144.03244 581.436035 C 142.191483 570.874695 141.271011 560.458862 141.271011 550.188232 L 141.271011 502.807922 C 141.271011 475.871735 134.924622 456.493469 122.231674 444.672546 C 109.538719 432.851624 90.2089 426.941254 64.241631 426.941254 L 64.241631 375.782135 C 90.2089 375.782135 109.538719 369.823303 122.231674 357.905487 C 134.924622 345.987671 141.271011 326.464081 141.271011 299.334106 L 141.271011 251.953796 C 141.271011 241.876892 142.094589 231.509521 143.74176 220.851318 C 145.388931 210.193115 148.053452 199.825745 151.735382 189.748901 C 155.417297 179.672058 160.116531 170.225159 165.833206 161.407898 C 171.549881 152.590698 178.526047 144.887817 186.761932 138.299133 C 194.997833 131.710388 204.493179 126.478271 215.248276 122.602539 C 226.003372 118.726868 238.163239 116.789001 251.728226 116.789001 L 259.576508 157.193115 C 246.786652 156.999329 236.806839 159.760742 229.63678 165.477417 C 222.466721 171.194092 217.234589 178.606262 213.940231 187.714172 C 210.645874 196.822083 208.659607 207.044128 207.981354 218.380615 C 207.303101 229.717041 206.963989 240.90802 206.963989 251.953796 L 206.963989 299.334106 C 206.963989 322.394592 201.441177 342.838654 190.395401 360.666931 C 179.349625 378.495209 162.19986 392.059967 138.945587 401.361694 C 162.393646 410.663391 179.591858 424.131287 190.540741 441.765778 C 201.489624 459.400269 206.963989 479.747437 206.963989 502.807922 L 206.963989 550.188232 C 206.963989 561.234009 207.690674 572.424988 209.144058 583.761414 C 210.597458 595.0979 213.31041 605.319946 217.28302 614.427856 C 221.255615 623.535767 226.633087 630.947937 233.415573 636.664612 C 240.198074 642.381287 248.918289 645.1427 259.576508 644.948914 Z"/>
</svg>
